<svg width="34" height="34" viewBox="0 0 34 34" fill="none" xmlns="http://www.w3.org/2000/svg">
<circle cx="17" cy="17" r="17" fill="white"/>
<path d="M27 10.8002C26.2483 11.1263 25.4534 11.3419 24.64 11.4402C25.4982 10.9275 26.1413 10.121 26.45 9.17021C25.6436 9.65027 24.7608 9.98851 23.84 10.1702C23.2245 9.50278 22.405 9.05851 21.5098 8.90706C20.6147 8.75562 19.6945 8.90557 18.8938 9.3334C18.093 9.76123 17.4569 10.4427 17.0852 11.271C16.7135 12.0994 16.6273 13.0276 16.84 13.9102C15.2094 13.8277 13.6144 13.4032 12.1587 12.6641C10.7029 11.925 9.41885 10.8879 8.39 9.62021C8.02914 10.2504 7.83952 10.964 7.84 11.6902C7.83872 12.3646 8.00422 13.0288 8.32176 13.6238C8.63929 14.2187 9.09902 14.7259 9.66 15.1002C9.00798 15.0825 8.36989 14.9075 7.8 14.5902V14.6402C7.80489 15.5851 8.13599 16.4993 8.73731 17.2282C9.33864 17.957 10.1733 18.4559 11.1 18.6402C10.7433 18.7488 10.3729 18.806 10 18.8102C9.74189 18.8072 9.48442 18.7838 9.23 18.7402C9.49391 19.553 10.0046 20.2634 10.6911 20.7724C11.3775 21.2814 12.2056 21.5638 13.06 21.5802C11.6172 22.7155 9.83588 23.3351 8 23.3402C7.66574 23.3413 7.33174 23.3213 7 23.2802C8.87443 24.4905 11.0588 25.1329 13.29 25.1302C14.8297 25.1462 16.3571 24.8552 17.7831 24.2743C19.2091 23.6934 20.505 22.8341 21.5952 21.7467C22.6854 20.6593 23.548 19.3656 24.1326 17.9411C24.7172 16.5166 25.012 14.9899 25 13.4502C25 13.2802 25 13.1002 25 12.9202C25.7847 12.335 26.4615 11.6176 27 10.8002Z" fill="#09B559"/>
</svg>
