<svg width="34" height="34" viewBox="0 0 34 34" fill="none" xmlns="http://www.w3.org/2000/svg">
<circle cx="17" cy="17" r="17" fill="white"/>
<circle cx="17.2909" cy="17.1297" r="8.70885" fill="white"/>
<path d="M16.9383 7.17676C11.9294 7.17676 7.87282 11.328 7.87282 16.4538C7.87282 18.519 8.53338 20.4266 9.64782 21.9694L7.33789 27.0827L7.94171 26.7965L12.594 24.5986C13.8827 25.3202 15.3619 25.7307 16.9342 25.7307C21.9391 25.7307 25.9997 21.5795 25.9997 16.4538C26.0038 11.328 21.9431 7.17676 16.9383 7.17676ZM21.7729 20.4142C21.7202 20.6713 21.6108 20.916 21.4528 21.1316C21.2583 21.3971 21.007 21.5961 20.7193 21.7205C20.4316 21.8449 20.1155 21.8947 19.7994 21.8532C18.9524 21.7496 18.1338 21.4717 17.4003 21.0238C16.5533 20.5096 15.4145 19.7092 14.5554 18.5646C13.6395 17.4656 13.1411 16.18 12.825 15.2221C12.5535 14.3968 12.4562 13.5176 12.5332 12.6509C12.5616 12.3233 12.675 12.0164 12.8534 11.7551C13.0317 11.4939 13.2789 11.2824 13.5707 11.1455C13.8098 11.0294 14.0691 10.9755 14.3244 10.9755C14.6891 10.9755 15.1349 10.9713 15.4429 11.1953C15.9211 11.5395 16.1237 12.2196 16.1237 12.8168C16.1237 12.8707 16.1197 12.9287 16.1156 12.9827C16.0873 13.3103 16.0589 13.5964 15.8765 13.8577C15.6982 14.119 15.37 14.347 15.0782 14.488C15.3011 15.7156 15.6861 16.6279 16.2169 17.2168C16.4439 17.5403 16.7519 17.8472 17.145 18.1333C17.5381 18.4195 18.0122 18.6807 18.5755 18.9213C18.77 18.66 19.0578 18.378 19.3455 18.2536C19.6292 18.1292 19.9128 18.1582 20.2289 18.1997C20.2816 18.208 20.3383 18.2163 20.391 18.2287C20.9584 18.3531 21.5663 18.6973 21.7972 19.2489C21.9431 19.6055 21.8499 20.0493 21.7729 20.4142Z" fill="#09B559"/>
</svg>
