<svg width="34" height="34" viewBox="0 0 34 34" fill="none" xmlns="http://www.w3.org/2000/svg">
<circle cx="17" cy="17" r="17" fill="white"/>
<path d="M16.7853 23.0325H17.9803C17.9803 23.0325 18.3415 22.9925 18.5253 22.7938C18.6953 22.6113 18.689 22.2688 18.689 22.2688C18.689 22.2688 18.6653 20.665 19.4103 20.4288C20.144 20.1963 21.0865 21.9788 22.0853 22.665C22.8403 23.1838 23.414 23.07 23.414 23.07L26.0853 23.0325C26.0853 23.0325 27.4828 22.9463 26.8203 21.8475C26.7665 21.7575 26.434 21.035 24.834 19.55C23.159 17.995 23.384 18.2475 25.4015 15.5588C26.6303 13.9213 27.1215 12.9213 26.9678 12.4938C26.8215 12.0863 25.9178 12.1938 25.9178 12.1938L22.9128 12.2113C22.9128 12.2113 22.6903 12.1813 22.524 12.28C22.3628 12.3775 22.259 12.6025 22.259 12.6025C22.259 12.6025 21.7828 13.87 21.1478 14.9475C19.809 17.2213 19.2728 17.3413 19.054 17.2C18.5453 16.8713 18.6728 15.8775 18.6728 15.1725C18.6728 12.9688 19.0065 12.05 18.0215 11.8125C17.694 11.7338 17.454 11.6813 16.6178 11.6725C15.5453 11.6613 14.6365 11.6763 14.1228 11.9275C13.7803 12.095 13.5165 12.4688 13.6778 12.49C13.8765 12.5163 14.3265 12.6113 14.5653 12.9363C14.874 13.355 14.8628 14.2975 14.8628 14.2975C14.8628 14.2975 15.0403 16.8913 14.449 17.2138C14.0428 17.435 13.4865 16.9838 12.2928 14.92C11.6815 13.8638 11.219 12.695 11.219 12.695C11.219 12.695 11.1303 12.4775 10.9715 12.3613C10.779 12.22 10.509 12.175 10.509 12.175L7.65153 12.1925C7.65153 12.1925 7.22278 12.205 7.06528 12.3913C6.92528 12.5575 7.05403 12.9 7.05403 12.9C7.05403 12.9 9.29153 18.1338 11.824 20.7725C14.1478 23.1913 16.7853 23.0325 16.7853 23.0325Z" fill="#09B559"/>
</svg>
