<svg width="107" height="107" viewBox="0 0 107 107" fill="none" xmlns="http://www.w3.org/2000/svg">
<path d="M21.4167 39.707H11.7031C11.2597 39.707 10.8345 39.8832 10.5209 40.1967C10.2074 40.5102 10.0312 40.9355 10.0312 41.3789V51.0925C10.0312 51.5359 10.2074 51.9612 10.5209 52.2747C10.8345 52.5882 11.2597 52.7644 11.7031 52.7644H21.4167C21.8601 52.7644 22.2854 52.5882 22.5989 52.2747C22.9125 51.9612 23.0886 51.5359 23.0886 51.0925V41.3789C23.0886 40.9355 22.9125 40.5102 22.5989 40.1967C22.2854 39.8832 21.8601 39.707 21.4167 39.707ZM19.7448 49.4206H13.375V43.0508H19.7448V49.4206ZM21.4167 57.7466H11.7031C11.2597 57.7466 10.8345 57.9227 10.5209 58.2362C10.2074 58.5498 10.0312 58.975 10.0312 59.4184V69.132C10.0312 69.5754 10.2074 70.0007 10.5209 70.3142C10.8345 70.6278 11.2597 70.8039 11.7031 70.8039H21.4167C21.8601 70.8039 22.2854 70.6278 22.5989 70.3142C22.9125 70.0007 23.0886 69.5754 23.0886 69.132V59.4184C23.0886 58.975 22.9125 58.5498 22.5989 58.2362C22.2854 57.9227 21.8601 57.7466 21.4167 57.7466ZM19.7448 67.4602H13.375V61.0903H19.7448V67.4602ZM21.4167 74.4151H11.7031C11.2597 74.4151 10.8345 74.5913 10.5209 74.9048C10.2074 75.2184 10.0312 75.6436 10.0312 76.087V85.8006C10.0312 86.244 10.2074 86.6693 10.5209 86.9828C10.8345 87.2964 11.2597 87.4725 11.7031 87.4725H21.4167C21.8601 87.4725 22.2854 87.2964 22.5989 86.9828C22.9125 86.6693 23.0886 86.244 23.0886 85.8006V76.087C23.0886 75.6436 22.9125 75.2184 22.5989 74.9048C22.2854 74.5913 21.8601 74.4151 21.4167 74.4151ZM19.7448 84.1287H13.375V77.7589H19.7448V84.1287ZM33.4375 42.7331L30.0938 46.1772L28.9234 45.1406C28.768 44.9839 28.5831 44.8595 28.3794 44.7747C28.1756 44.6898 27.9571 44.6461 27.7364 44.6461C27.5157 44.6461 27.2972 44.6898 27.0934 44.7747C26.8897 44.8595 26.7048 44.9839 26.5494 45.1406C26.238 45.4539 26.0632 45.8776 26.0632 46.3193C26.0632 46.761 26.238 47.1847 26.5494 47.498L28.8733 49.8052C29.1865 50.1165 29.6103 50.2913 30.052 50.2913C30.4936 50.2913 30.9174 50.1165 31.2306 49.8052L35.8617 45.1406C36.0184 44.9852 36.1428 44.8003 36.2277 44.5966C36.3126 44.3928 36.3563 44.1743 36.3563 43.9536C36.3563 43.7329 36.3126 43.5144 36.2277 43.3106C36.1428 43.1069 36.0184 42.922 35.8617 42.7666C35.7078 42.6 35.5216 42.4665 35.3145 42.3741C35.1073 42.2818 34.8836 42.2325 34.6568 42.2294C34.43 42.2263 34.205 42.2693 33.9954 42.3559C33.7857 42.4425 33.5959 42.5709 33.4375 42.7331ZM33.4375 60.7894L30.0938 64.2334L28.9736 63.0966C28.8177 62.9407 28.6327 62.817 28.429 62.7327C28.2253 62.6483 28.007 62.6049 27.7866 62.6049C27.5661 62.6049 27.3478 62.6483 27.1441 62.7327C26.9405 62.817 26.7554 62.9407 26.5995 63.0966C26.4436 63.2524 26.32 63.4375 26.2356 63.6412C26.1513 63.8448 26.1078 64.0631 26.1078 64.2836C26.1078 64.504 26.1513 64.7223 26.2356 64.926C26.32 65.1297 26.4436 65.3147 26.5995 65.4706L28.9234 67.7778C29.2367 68.0892 29.6604 68.264 30.1021 68.264C30.5438 68.264 30.9675 68.0892 31.2808 67.7778L35.9119 63.1467C36.2245 62.8186 36.3939 62.3797 36.383 61.9267C36.372 61.4736 36.1815 61.0435 35.8534 60.7309C35.5252 60.4183 35.0864 60.2488 34.6333 60.2598C34.1803 60.2708 33.7501 60.4613 33.4375 60.7894ZM33.4375 77.4412L30.0938 80.8853L28.9736 79.7652C28.8182 79.6084 28.6333 79.4841 28.4295 79.3992C28.2258 79.3143 28.0073 79.2706 27.7866 79.2706C27.5659 79.2706 27.3473 79.3143 27.1436 79.3992C26.9399 79.4841 26.755 79.6084 26.5995 79.7652C26.2881 80.0784 26.1134 80.5021 26.1134 80.9438C26.1134 81.3855 26.2881 81.8092 26.5995 82.1225L28.9234 84.4297C29.2367 84.7411 29.6604 84.9159 30.1021 84.9159C30.5438 84.9159 30.9675 84.7411 31.2808 84.4297L35.9119 79.8153C36.0686 79.6599 36.193 79.475 36.2778 79.2712C36.3627 79.0675 36.4064 78.849 36.4064 78.6283C36.4064 78.4076 36.3627 78.189 36.2778 77.9853C36.193 77.7816 36.0686 77.5967 35.9119 77.4412C35.7552 77.2688 35.5642 77.1311 35.3511 77.0368C35.1381 76.9426 34.9077 76.8939 34.6747 76.8939C34.4417 76.8939 34.2113 76.9426 33.9983 77.0368C33.7852 77.1311 33.5942 77.2688 33.4375 77.4412ZM60.6556 45.2577H41.2284C40.785 45.2577 40.3598 45.4338 40.0462 45.7473C39.7327 46.0609 39.5566 46.4861 39.5566 46.9295C39.5566 47.3729 39.7327 47.7982 40.0462 48.1117C40.3598 48.4253 40.785 48.6014 41.2284 48.6014H60.6556C61.099 48.6014 61.5243 48.4253 61.8378 48.1117C62.1514 47.7982 62.3275 47.3729 62.3275 46.9295C62.3275 46.4861 62.1514 46.0609 61.8378 45.7473C61.5243 45.4338 61.099 45.2577 60.6556 45.2577ZM60.6556 63.2972H41.2284C40.785 63.2972 40.3598 63.4733 40.0462 63.7869C39.7327 64.1004 39.5566 64.5257 39.5566 64.9691C39.5566 65.4125 39.7327 65.8377 40.0462 66.1513C40.3598 66.4648 40.785 66.6409 41.2284 66.6409H60.6556C61.099 66.6409 61.5243 66.4648 61.8378 66.1513C62.1514 65.8377 62.3275 65.4125 62.3275 64.9691C62.3275 64.5257 62.1514 64.1004 61.8378 63.7869C61.5243 63.4733 61.099 63.2972 60.6556 63.2972ZM60.6556 79.9658H41.2284C40.785 79.9658 40.3598 80.1419 40.0462 80.4555C39.7327 80.769 39.5566 81.1942 39.5566 81.6377C39.5566 82.0811 39.7327 82.5063 40.0462 82.8198C40.3598 83.1334 40.785 83.3095 41.2284 83.3095H60.6556C61.099 83.3095 61.5243 83.1334 61.8378 82.8198C62.1514 82.5063 62.3275 82.0811 62.3275 81.6377C62.3275 81.1942 62.1514 80.769 61.8378 80.4555C61.5243 80.1419 61.099 79.9658 60.6556 79.9658Z" fill="#09B559"/>
<path d="M103.656 17.655H3.34375C2.90034 17.655 2.47509 17.8312 2.16156 18.1447C1.84802 18.4582 1.67188 18.8835 1.67188 19.3269V94.4777C1.67188 94.9211 1.84802 95.3463 2.16156 95.6599C2.47509 95.9734 2.90034 96.1496 3.34375 96.1496H103.656C104.1 96.1496 104.525 95.9734 104.838 95.6599C105.152 95.3463 105.328 94.9211 105.328 94.4777V19.3269C105.328 18.8835 105.152 18.4582 104.838 18.1447C104.525 17.8312 104.1 17.655 103.656 17.655ZM101.984 20.9988V31.7657H5.01562V20.9988H101.984ZM5.01562 92.8058V35.1094H101.984V92.8058H5.01562Z" fill="#09B559"/>
<path d="M95.2968 40.1251H68.5468C68.1034 40.1251 67.6782 40.3012 67.3646 40.6147C67.0511 40.9283 66.875 41.3535 66.875 41.7969V85.2657C66.875 85.7091 67.0511 86.1343 67.3646 86.4479C67.6782 86.7614 68.1034 86.9376 68.5468 86.9376H95.2968C95.7402 86.9376 96.1655 86.7614 96.479 86.4479C96.7926 86.1343 96.9687 85.7091 96.9687 85.2657V41.7969C96.9687 41.3535 96.7926 40.9283 96.479 40.6147C96.1655 40.3012 95.7402 40.1251 95.2968 40.1251ZM93.625 83.5938H70.2187V43.4688H93.625V83.5938ZM9.47949 28.2213H22.1857C22.6292 28.2213 23.0544 28.0452 23.3679 27.7316C23.6815 27.4181 23.8576 26.9928 23.8576 26.5494C23.8576 26.106 23.6815 25.6808 23.3679 25.3672C23.0544 25.0537 22.6292 24.8776 22.1857 24.8776H9.47949C9.03608 24.8776 8.61083 25.0537 8.2973 25.3672C7.98376 25.6808 7.80762 26.106 7.80762 26.5494C7.80762 26.9928 7.98376 27.4181 8.2973 27.7316C8.61083 28.0452 9.03608 28.2213 9.47949 28.2213Z" fill="#09B559"/>
<path d="M78.8291 80.3335H85.015C85.4584 80.3335 85.8837 80.1574 86.1972 79.8438C86.5108 79.5303 86.6869 79.105 86.6869 78.6616C86.6869 78.2182 86.5108 77.793 86.1972 77.4794C85.8837 77.1659 85.4584 76.9897 85.015 76.9897H78.8291C78.3857 76.9897 77.9604 77.1659 77.6469 77.4794C77.3334 77.793 77.1572 78.2182 77.1572 78.6616C77.1572 79.105 77.3334 79.5303 77.6469 79.8438C77.9604 80.1574 78.3857 80.3335 78.8291 80.3335Z" fill="#09B559"/>
</svg>
