<svg width="108" height="108" viewBox="0 0 108 108" fill="none" xmlns="http://www.w3.org/2000/svg">
<g clip-path="url(#clip0_114_4155)">
<path d="M54 105.84V92.4479C54 92.4479 63.936 92.0159 63.936 80.7839C63.936 69.5519 54 68.2559 54 68.2559V54.4319H69.984C69.984 54.4319 73.008 40.6079 79.92 40.6079C86.832 40.6079 89.856 52.7039 89.856 52.7039L105.84 53.1359V104.976L104.544 106.272L54 105.84V105.84Z" stroke="#09B559" stroke-width="4" stroke-miterlimit="10"/>
<path d="M105.84 104.544C105.84 104.976 105.408 105.84 104.544 105.84H3.8878C3.4558 105.84 2.5918 105.408 2.5918 104.544V3.88804C2.5918 3.45604 3.0238 2.59204 3.8878 2.59204H104.544C104.976 2.59204 105.84 3.02404 105.84 3.88804V104.544Z" stroke="#09B559" stroke-width="4" stroke-miterlimit="10"/>
<path d="M2.5918 54.0002H10.7998C10.7998 54.0002 12.0958 65.6642 21.5998 65.6642C31.1038 65.6642 31.9678 54.0002 31.9678 54.0002H53.9998V32.8322C53.9998 32.8322 41.4718 31.1042 41.4718 22.4642C41.4718 12.5282 53.9998 13.3922 53.9998 13.3922V3.02416L5.6158 2.16016L3.4558 3.02416L2.5918 4.75216V54.0002V54.0002Z" stroke="#09B559" stroke-width="4" stroke-miterlimit="10"/>
</g>
<defs>
<clipPath id="clip0_114_4155">
<rect width="108" height="108" fill="white"/>
</clipPath>
</defs>
</svg>
