<svg width="140" height="140" viewBox="0 0 140 140" fill="none" xmlns="http://www.w3.org/2000/svg">
<path d="M95.4844 91.5469C91.793 90.2618 87.8008 90.1797 84.1094 88.8946C82.9883 88.5118 80.7734 88.0469 80.3086 86.7618C79.8711 85.5039 79.8711 84.0274 79.7891 82.7149C79.7344 81.6758 79.707 80.6368 79.707 79.5977C79.707 78.9141 81.457 77.4649 81.8398 76.836C83.3164 74.375 83.4531 71.0665 83.7266 68.2774C86.1055 68.9336 86.4062 64.5313 86.8164 63.1915C87.1172 62.2618 88.9492 55.8633 86.1055 56.7383C86.7891 55.5352 87.0625 54.0586 87.2539 52.7188C87.8008 49.2188 88.0195 45.3907 86.9531 41.9727C84.7383 34.8633 77.9297 30.8711 70.7383 30.6524C63.4375 30.4063 56.1094 33.9063 53.375 40.9883C52.0625 44.4336 52.1719 48.1797 52.6094 51.7891C52.8008 53.4297 53.0742 55.2618 53.8945 56.7383C51.2422 55.9454 52.6641 61.5782 52.9648 62.5625C53.4023 63.9571 53.7852 68.961 56.2734 68.2774C56.4922 70.4922 56.7383 72.7618 57.3398 74.9219C57.75 76.3711 58.5977 77.6016 59.582 78.7227C60.0742 79.2696 60.3203 79.3243 60.293 80.0352C60.2656 82.168 60.3203 84.4649 59.7734 86.543C59.2266 88.6211 54.6602 89.4961 52.8281 89.879C47.9062 90.8907 43.3672 91.3555 39.2656 94.418C34.4805 97.9454 31.9922 103.441 31.9922 109.375H108.008C108.008 101.309 103.141 94.1993 95.4844 91.5469C92.4219 90.4805 98.5742 92.6133 95.4844 91.5469ZM40.2227 99.4219C41.7539 97.8086 43.6953 96.3868 45.8008 95.5938C48.6719 94.5 51.9258 94.5547 54.9062 93.7891C57.3672 93.1602 60.4297 92.1758 62.3438 90.3985C64.0938 88.7579 64.2852 86.2422 64.4492 83.9727C64.5859 82.0586 64.5586 80.1719 64.5586 78.2579C64.5586 76.918 63 76.1524 62.2344 75.086C61.0039 73.418 60.9492 70.9297 60.7031 68.9336C60.5938 68.0586 60.5664 66.9375 59.8281 66.336C59.0078 65.6797 58.4063 65.3243 57.9961 64.2852C57.4492 62.8633 57.2578 61.3321 56.8203 59.8555C56.5469 58.8985 57.5039 57.9961 57.8867 57.2032C58.5977 55.754 57.3672 53.5118 57.1211 52.0079C56.3555 47.5235 56.3828 42.629 59.6094 39.0743C66.0898 31.9102 80.9375 34.1797 83.0703 44.2422C83.7266 47.3868 83.3164 51.0508 82.4414 54.1133C82.0586 55.4258 81.6211 56.3829 82.3867 57.668C83.5352 59.5274 83.043 60.7305 82.4961 62.8086C82.0586 64.5313 81.5117 65.2969 80.1992 66.3633C79.1055 67.2383 79.2695 69.4258 79.0781 70.6836C78.8594 72.2149 78.7227 73.8282 77.793 75.1133C77.4375 75.6055 75.4961 77.1368 75.4961 77.6563C75.4961 80.6641 75.3594 83.7266 75.8789 86.7071C76.5898 90.9454 80.1445 91.9571 83.6992 93.4063C87.3086 94.8008 91.4922 94.2813 94.9922 96.004C98.6016 97.7813 102.074 101.035 103.113 105.055H36.9141C37.4336 102.785 38.6914 101.063 40.2227 99.4219C42.7383 96.7696 38.6094 101.145 40.2227 99.4219Z" fill="#09B559"/>
<path d="M39.4023 88.0469C41.3164 87.0898 43.3945 86.8711 45.5 86.6523C46.2656 86.5703 46.6211 86.0508 46.0469 85.3125C44.9531 83.9179 41.1797 83.6445 39.5938 83.0156C38.6094 82.6328 38.3359 82.2773 38.2539 81.1836C38.2266 80.6914 37.9531 78.5039 38.3359 78.1484C38.6094 77.875 40.332 77.9844 40.7148 77.9297C42.2734 77.7383 43.8594 77.4101 45.3359 76.8359C45.9648 76.5898 46.5664 76.289 47.1133 75.9062C47.7695 75.414 46.6211 74.2109 46.3203 73.5547C45.3906 71.5039 44.9805 69.2617 44.8438 67.0195C44.5703 62.6172 45.2539 58.1875 44.4336 53.8125C43.2031 47.1133 38.0352 43.75 31.4453 43.75C27.3711 43.75 23.3516 45.1445 21.082 48.6992C18.5664 52.6094 18.7031 57.4765 18.8398 61.9336C18.9219 64.4765 19.0313 67.0469 18.6758 69.5898C18.5117 70.6836 18.2656 71.75 17.8828 72.789C17.582 73.582 16.0508 75.5508 16.6523 75.9609C18.9219 77.5742 22.75 78.1211 25.4844 77.9023C25.5664 79.2422 25.8125 80.9648 25.3203 82.2226C24.5547 84.1914 18.8398 84.7109 17.1172 85.2851C12.3047 86.8984 8.75 90.9179 8.75 96.25H30.4883C30.8438 96.25 32.2109 93.707 32.5938 93.2969C34.5078 91.164 36.8594 89.332 39.4023 88.0469C35.4102 90.0703 41.8633 86.8164 39.4023 88.0469ZM28.1094 91.875H14.7383C16.6797 88.6484 21.5469 88.8672 24.7461 87.7187C27.6992 86.6523 29.5859 84.8476 29.8867 81.7031C29.9141 81.3476 29.9414 73.7187 29.6406 73.7187C27.2617 73.6367 24.7734 73.6914 22.3945 73.3359C24.2812 67.2383 22.4766 60.9492 23.4883 54.7969C24.2266 50.3398 27.0703 47.8789 31.6094 47.8789C35.957 47.8789 39.1836 49.9023 40.1133 54.2773C41.4258 60.6211 39.5664 67.1015 41.5898 73.3906C40.0859 73.7734 38.5 73.8281 36.9414 73.8828C36.1758 73.9101 35.3828 73.9375 34.6172 73.9648C34.125 73.9922 34.2891 74.8398 34.2617 75.25C33.9883 78.2305 32.8945 82.9336 35.2734 85.3398C32.6484 86.9805 29.8047 89.25 28.1094 91.875ZM109.32 96.25H131.25C131.25 90.9179 127.668 86.8711 122.855 85.2851C120.641 84.5742 116.375 84.3554 114.789 82.4414C113.996 81.4844 114.434 79.0508 114.516 77.9023C115.719 78.0117 117.031 77.8203 118.262 77.6562C119.383 77.4922 120.477 77.2734 121.543 76.8906C122.035 76.6992 122.527 76.5078 122.992 76.2344C124.059 75.6054 123.566 75.4961 123.02 74.5664C120.039 69.5625 121.379 63.2187 121.242 57.7226C121.133 53.1562 119.93 48.1523 115.773 45.582C112.027 43.2578 106.477 43.1758 102.457 44.8164C90.8633 49.4648 97.6992 64.832 93.7344 73.6367C93.0508 75.1133 92.0664 75.6328 93.7891 76.5078C94.7461 77 95.7852 77.3281 96.8242 77.5742C98.4102 77.957 100.051 78.1758 101.691 78.2304C101.965 78.2304 101.773 81.6758 101.691 82.0312C101.391 83.3711 98.4648 83.7539 97.3711 84.0547C96.25 84.3554 94.3906 84.4375 93.8438 85.6133C93.0234 87.3633 96.5508 86.9258 97.4258 87.0898C100.242 87.6094 102.73 89.168 104.918 90.9453C106.531 92.2578 108.719 94.1172 109.32 96.25ZM109.211 88.8398C107.816 87.5547 106.367 86.2969 104.754 85.2851C107.16 82.8789 106.039 78.2031 105.766 75.1953C105.602 73.4726 105.219 73.9101 103.496 73.8555C101.855 73.8008 99.9961 73.8828 98.4375 73.3633C100.406 67.2656 98.793 61.0039 99.8047 54.7969C100.57 50.1211 103.77 47.8242 108.418 47.8242C112.629 47.8242 115.527 49.9297 116.402 54.1133C117.742 60.4297 115.691 66.9648 117.633 73.2539C115.309 73.6094 112.902 73.5273 110.551 73.6094C109.977 73.6367 110.031 80.4726 110.086 81.0742C110.277 84.2734 111.754 86.2148 114.789 87.4453C118.098 88.7851 123.266 88.4297 125.289 91.793H113.066C111.125 91.8203 110.633 90.125 109.211 88.8398C107.844 87.582 110.305 89.8242 109.211 88.8398Z" fill="#09B559"/>
</svg>
