<svg width="105" height="137" viewBox="0 0 105 137" fill="none" xmlns="http://www.w3.org/2000/svg">
<path d="M62.3841 74.8832L47.299 89.9689L42.6155 85.2853C42.2391 84.9089 41.7286 84.6975 41.1963 84.6975C40.6641 84.6975 40.1536 84.909 39.7773 85.2854C39.4009 85.6618 39.1895 86.1722 39.1895 86.7045C39.1896 87.2368 39.401 87.7472 39.7774 88.1236L45.88 94.2261C46.2563 94.6024 46.7668 94.8138 47.299 94.8138C47.8312 94.8138 48.3416 94.6024 48.718 94.2261L65.2224 77.7215C65.4088 77.5351 65.5566 77.3139 65.6575 77.0704C65.7583 76.8269 65.8102 76.5659 65.8102 76.3023C65.8102 76.0388 65.7583 75.7778 65.6575 75.5343C65.5566 75.2908 65.4088 75.0695 65.2224 74.8832C65.036 74.6968 64.8148 74.549 64.5713 74.4481C64.3278 74.3472 64.0668 74.2953 63.8033 74.2953C63.5397 74.2953 63.2787 74.3472 63.0352 74.4481C62.7917 74.549 62.5705 74.6968 62.3841 74.8832V74.8832ZM97.365 56.4339C93.2272 47.8071 87.3266 38.5521 79.8269 28.9266C71.8981 18.8056 63.2037 9.30848 53.8206 0.51892C53.4419 0.176192 52.9468 -0.00925726 52.4361 0.000355886C51.9254 0.00996903 51.4377 0.213922 51.0721 0.570659C42.015 9.68394 33.5794 19.3945 25.8221 29.6369C8.93211 52.0387 0.368164 71.0015 0.368164 85.9981C0.368164 114.121 23.7427 137 52.4739 137C59.2144 137.029 65.8938 135.723 72.1268 133.157C78.3598 130.591 84.0229 126.816 88.7894 122.05C98.2552 112.604 103.862 99.8382 104.577 86.1024C105.033 77.3436 102.606 67.3617 97.365 56.4339ZM100.569 85.8939C99.9057 98.6352 94.7153 110.467 85.9542 119.209C81.5596 123.602 76.3384 127.081 70.592 129.446C64.8456 131.811 58.6878 133.014 52.4739 132.986C25.9558 132.986 4.38184 111.907 4.38184 85.9981C4.38184 68.4409 17.7665 46.9949 28.9948 32.0957C36.2621 22.5156 44.1205 13.3987 52.5242 4.79808C61.1932 13.0767 69.2594 21.9644 76.6609 31.3934C93.0618 52.4437 101.329 71.2897 100.569 85.8939ZM71.2557 65.7988C70.9231 65.4664 70.6445 64.1764 70.4603 63.3229C70.0487 61.417 69.582 59.2568 67.7286 58.1841C65.8966 57.1247 63.8082 57.7911 61.9655 58.3795C61.0713 58.6649 59.8471 59.0548 59.367 58.9278C58.9435 58.8144 58.0767 57.8572 57.5031 57.2238C56.1807 55.7631 54.6813 54.1072 52.4999 54.1072C50.3185 54.1072 48.8194 55.7628 47.4968 57.2238C46.9232 57.8572 46.0566 58.8144 45.633 58.9275C45.1526 59.0561 43.9285 58.6651 43.0343 58.3795C41.1917 57.7913 39.1031 57.1245 37.2715 58.1841C35.4179 59.2567 34.9513 61.417 34.5398 63.3229C34.3554 64.1766 34.077 65.4664 33.7444 65.7988C33.4117 66.1315 32.1219 66.41 31.2683 66.5942C29.3622 67.0058 27.202 67.4725 26.1293 69.326C25.0697 71.158 25.7365 73.2463 26.3248 75.0891C26.6103 75.983 27.0012 77.2075 26.8729 77.6878C26.7596 78.1113 25.8025 78.9778 25.1692 79.5514C23.7083 80.8741 22.0526 82.3733 22.0526 84.5546C22.0526 86.736 23.7083 88.2352 25.1692 89.5579C25.8025 90.1315 26.7596 90.9979 26.8729 91.4215C27.0012 91.9018 26.6103 93.1263 26.3248 94.0202C25.7365 95.863 25.0696 97.9513 26.1295 99.7831C27.2017 101.637 29.362 102.103 31.2679 102.515C32.1215 102.699 33.4114 102.978 33.7442 103.31C34.0769 103.643 34.3554 104.933 34.5396 105.786C34.9512 107.692 35.4178 109.853 37.2715 110.925C39.1028 111.985 41.1913 111.318 43.0341 110.73C43.9281 110.444 45.1526 110.055 45.6331 110.182C46.0567 110.295 46.9234 111.252 47.4969 111.886C48.8195 113.346 50.3186 115.002 52.4999 115.002C54.6813 115.002 56.1804 113.346 57.5031 111.885C58.0767 111.252 58.9432 110.295 59.3668 110.182C59.8471 110.052 61.0715 110.444 61.9655 110.73C63.8079 111.318 65.8966 111.985 67.7283 110.925C69.582 109.853 70.0485 107.692 70.46 105.786C70.6443 104.933 70.9228 103.643 71.2557 103.31C71.5884 102.978 72.8782 102.699 73.7316 102.515C75.6376 102.103 77.7978 101.637 78.8705 99.7833C79.9303 97.9513 79.2635 95.863 78.675 94.0202C78.3894 93.1263 77.9985 91.9018 78.127 91.4215C78.2402 90.9977 79.1973 90.1312 79.8308 89.5576C81.2917 88.2352 82.9474 86.736 82.9474 84.5546C82.9474 82.3733 81.2915 80.8741 79.8308 79.5514C79.1973 78.9778 78.2402 78.1113 78.127 77.6878C77.9985 77.2075 78.3894 75.983 78.675 75.0891C79.2635 73.2463 79.9303 71.158 78.8705 69.3262C77.7981 67.4725 75.6376 67.0061 73.7316 66.5945C72.8782 66.4103 71.5884 66.1317 71.2557 65.7988ZM75.3917 71.3273C75.5424 71.7046 75.093 73.112 74.8516 73.8682C74.3668 75.3864 73.8173 77.1074 74.2492 78.7241C74.6684 80.2917 75.9232 81.4278 77.1369 82.5266C77.6744 83.0135 78.9337 84.1535 78.9337 84.5546C78.9337 84.9555 77.6747 86.0956 77.1369 86.5824C75.9232 87.6812 74.6684 88.8173 74.2492 90.3852C73.8173 92.0019 74.3666 93.7229 74.8516 95.2411C75.093 95.9973 75.5424 97.4049 75.3985 97.77C75.1589 98.1005 73.6793 98.4201 72.8844 98.5918C71.2628 98.9419 69.586 99.3038 68.4177 100.472C67.2491 101.64 66.8869 103.318 66.5368 104.939C66.3651 105.734 66.0458 107.214 65.7272 107.446C65.3502 107.598 63.9423 107.148 63.1863 106.906C61.6684 106.422 59.949 105.872 58.3304 106.304C56.7629 106.723 55.6267 107.978 54.5279 109.191C54.0411 109.729 52.901 110.988 52.4999 110.988C52.0989 110.988 50.959 109.729 50.4722 109.191C49.3734 107.978 48.2371 106.723 46.6694 106.304C46.2611 106.197 45.8407 106.145 45.4187 106.148C44.1892 106.148 42.945 106.545 41.8134 106.906C41.0571 107.148 39.6496 107.598 39.2847 107.453C38.954 107.214 38.6346 105.734 38.4629 104.939C38.1127 103.318 37.7507 101.64 36.5824 100.472C35.414 99.3038 33.7369 98.9417 32.1152 98.5915C31.3203 98.4198 29.8409 98.1003 29.6081 97.7823C29.4575 97.4047 29.9069 95.9973 30.1484 95.2411C30.6331 93.7229 31.1825 92.0019 30.7504 90.3852C30.3314 88.8176 29.0766 87.6814 27.8631 86.5826C27.3253 86.0958 26.0662 84.9557 26.0662 84.5546C26.0662 84.1535 27.3253 83.0135 27.8631 82.5266C29.0766 81.4278 30.3314 80.2917 30.7504 78.7241C31.1825 77.1074 30.6331 75.3864 30.1484 73.8682C29.9069 73.112 29.4575 71.7041 29.6014 71.3393C29.8409 71.0088 31.3206 70.6892 32.1153 70.5175C33.7371 70.1674 35.4139 69.8054 36.5824 68.6371C37.7507 67.4688 38.1129 65.7918 38.463 64.1701C38.6347 63.3752 38.9541 61.8957 39.2725 61.6629C39.6497 61.5124 41.0571 61.9615 41.8135 62.203C43.3317 62.6877 45.0528 63.2378 46.6695 62.805C48.2371 62.3862 49.3732 61.1311 50.472 59.9176C50.9588 59.3801 52.0989 58.1208 52.4999 58.1208C52.901 58.1208 54.0411 59.3801 54.5279 59.9179C55.6267 61.1314 56.7629 62.3862 58.3304 62.8053C59.9471 63.237 61.6681 62.688 63.1863 62.203C63.9423 61.9613 65.3494 61.5121 65.7152 61.6561C66.0458 61.8957 66.3653 63.3752 66.537 64.1701C66.8872 65.7918 67.2491 67.4686 68.4174 68.6369C69.5857 69.8054 71.2628 70.1676 72.8844 70.5178C73.6793 70.6894 75.1589 71.0088 75.3917 71.3273H75.3917Z" fill="#09B559"/>
</svg>
