<svg width="49" height="56" viewBox="0 0 49 56" fill="none" xmlns="http://www.w3.org/2000/svg">
<path d="M24.5125 27.5556L24.4261 27.5048L1.60403 14.1303L1.34459 13.9782C1.29107 13.9468 1.22509 13.9468 1.17157 13.9782C1.11805 14.0096 1.08496 14.0675 1.08496 14.1303V41.2851C1.08496 41.3477 1.11805 41.4058 1.17157 41.4372L24.3394 55.0144C24.3663 55.0302 24.3961 55.0381 24.4261 55.0381C24.4558 55.0381 24.4858 55.0302 24.5125 55.0144C24.566 54.9832 24.5991 54.9251 24.5991 54.8624V27.7077C24.5991 27.6449 24.566 27.587 24.5125 27.5556ZM1.43101 14.4346L24.253 27.809V54.558L1.43101 41.1835V14.4346Z" fill="black"/>
<path d="M47.4205 14.4346V41.1835L24.5986 54.558V27.8091L47.4205 14.4346Z" fill="#09B559" stroke="white" stroke-miterlimit="10"/>
<path d="M47.6804 13.9782C47.6267 13.9468 47.5609 13.9468 47.5074 13.9782L47.2478 14.1303L24.426 27.5048L24.3393 27.5556C24.2858 27.587 24.2529 27.6449 24.2529 27.7077V54.8625C24.2529 54.9251 24.2858 54.9832 24.3393 55.0144C24.3662 55.0302 24.396 55.0381 24.426 55.0381C24.4557 55.0381 24.4857 55.0302 24.5124 55.0144L47.6804 41.4372C47.734 41.4058 47.7669 41.3477 47.7669 41.2851V14.1303C47.7669 14.0675 47.734 14.0096 47.6804 13.9782ZM47.4208 41.1835L24.599 54.558V27.809L47.4208 14.4346V41.1835Z" fill="black"/>
<path d="M47.6805 13.9782L24.5125 0.400817C24.4589 0.369405 24.393 0.369405 24.3394 0.400817L1.17157 13.9782C1.11805 14.0096 1.08496 14.0675 1.08496 14.1303C1.08496 14.1931 1.11805 14.251 1.17157 14.2824L1.43101 14.4345L24.253 27.809V27.8092L24.3394 27.8598C24.3663 27.8754 24.3961 27.8833 24.4261 27.8833C24.4558 27.8833 24.4858 27.8754 24.5125 27.8598L24.5991 27.809L47.4209 14.4345L47.6805 14.2824C47.7341 14.251 47.767 14.1931 47.767 14.1303C47.767 14.0675 47.7341 14.0096 47.6805 13.9782ZM24.4261 27.5048L1.60403 14.1303L24.4261 0.755823L47.2479 14.1303L24.4261 27.5048Z" fill="black"/>
</svg>
