<svg width="47" height="53" viewBox="0 0 47 53" fill="none" xmlns="http://www.w3.org/2000/svg">
<path d="M23.5123 26.0793L23.4294 26.0313L1.5389 13.3733L1.29005 13.2293C1.23871 13.1996 1.17543 13.1996 1.12409 13.2293C1.07275 13.2591 1.04102 13.3138 1.04102 13.3733V39.0733C1.04102 39.1326 1.07275 39.1876 1.12409 39.2173L23.3463 52.0671C23.3721 52.0821 23.4007 52.0896 23.4294 52.0896C23.458 52.0896 23.4867 52.0821 23.5123 52.0671C23.5636 52.0376 23.5954 51.9826 23.5954 51.9233V26.2233C23.5954 26.1639 23.5636 26.1091 23.5123 26.0793ZM1.37294 13.6612L23.2635 26.3192V51.6352L1.37294 38.9772V13.6612Z" fill="white"/>
<path d="M45.486 13.6613V38.9772L23.5957 51.6352V26.3192L45.486 13.6613Z" fill="#09B559" stroke="white" stroke-miterlimit="10"/>
<path d="M45.735 13.2293C45.6834 13.1996 45.6203 13.1996 45.569 13.2293L45.32 13.3733L23.4296 26.0313L23.3466 26.0793C23.2952 26.1091 23.2637 26.1639 23.2637 26.2233V51.9233C23.2637 51.9826 23.2952 52.0376 23.3466 52.0671C23.3723 52.0821 23.4009 52.0896 23.4296 52.0896C23.4582 52.0896 23.4869 52.0821 23.5125 52.0671L45.735 39.2173C45.7863 39.1876 45.8178 39.1326 45.8178 39.0733V13.3733C45.8178 13.3138 45.7863 13.2591 45.735 13.2293ZM45.4859 38.9772L23.5956 51.6352V26.3192L45.4859 13.6612V38.9772Z" fill="white"/>
<path d="M45.7347 13.2294L23.5123 0.379352C23.461 0.349624 23.3977 0.349624 23.3463 0.379352L1.12409 13.2294C1.07275 13.2591 1.04102 13.3139 1.04102 13.3733C1.04102 13.4328 1.07275 13.4876 1.12409 13.5173L1.37294 13.6613L23.2635 26.3193V26.3195L23.3463 26.3673C23.3721 26.3821 23.4007 26.3896 23.4294 26.3896C23.458 26.3896 23.4867 26.3821 23.5123 26.3673L23.5954 26.3193L45.4857 13.6613L45.7347 13.5173C45.7861 13.4876 45.8176 13.4328 45.8176 13.3733C45.8176 13.3139 45.7861 13.2591 45.7347 13.2294ZM23.4294 26.0313L1.5389 13.3733L23.4294 0.715341L45.3197 13.3733L23.4294 26.0313Z" fill="white"/>
</svg>
