<svg width="35" height="35" viewBox="0 0 35 35" fill="none" xmlns="http://www.w3.org/2000/svg">
<g clip-path="url(#clip0_114_674)">
<path d="M34.6664 5.28276C34.6609 5.2773 34.6609 5.26636 34.6555 5.26089C34.65 5.25542 34.6391 5.24995 34.6336 5.24448C34.4203 5.03667 34.1305 4.91089 33.8078 4.91089H1.19766C0.880469 4.91089 0.590625 5.03667 0.377344 5.24448C0.366406 5.25542 0.355469 5.25542 0.35 5.26636C0.344531 5.27183 0.339063 5.28276 0.333594 5.28823C0.125781 5.50151 0 5.79136 0 6.11401V28.8859C0 29.2359 0.153125 29.5531 0.399219 29.7718L0.404687 29.7773C0.410156 29.7828 0.421094 29.7882 0.426562 29.7937C0.634375 29.9742 0.902344 30.0835 1.19766 30.0835H33.8023C34.0977 30.0835 34.3656 29.9687 34.5789 29.7937C34.5844 29.7882 34.5898 29.7882 34.6008 29.7828C34.6008 29.7828 34.6008 29.7773 34.6063 29.7773C34.8469 29.5585 35.0055 29.2468 35.0055 28.8914V6.11401C35 5.79136 34.8688 5.50151 34.6664 5.28276ZM33.168 5.9773L17.5984 21.2734C17.5438 21.3281 17.4562 21.3281 17.4016 21.2734L1.83203 5.9773H33.168ZM1.06094 28.3718V6.71011L11.9875 17.4453L1.06094 28.3718ZM1.90859 29.0226L12.7477 18.1835L16.6633 22.0281C16.893 22.2523 17.1992 22.3671 17.5 22.3671C17.8062 22.3671 18.107 22.2523 18.3422 22.0281L22.2578 18.1835L33.0969 29.0226H1.90859ZM33.9391 28.3718L23.0125 17.4453L33.9391 6.71011V28.3718Z" fill="white"/>
</g>
<defs>
<clipPath id="clip0_114_674">
<rect width="35" height="35" fill="white"/>
</clipPath>
</defs>
</svg>
