<svg width="41" height="41" viewBox="0 0 41 41" fill="none" xmlns="http://www.w3.org/2000/svg">
<path d="M14.8107 19.9899C16.1397 22.707 18.3422 24.8995 21.0653 26.2162C21.2645 26.3106 21.4849 26.3515 21.7048 26.3348C21.9246 26.3182 22.1363 26.2446 22.3191 26.1213L26.3287 23.4476C26.5061 23.3293 26.7101 23.2572 26.9223 23.2377C27.1346 23.2182 27.3483 23.252 27.5443 23.3359L35.0455 26.5507C35.3003 26.659 35.5131 26.8471 35.6517 27.0868C35.7903 27.3264 35.8472 27.6047 35.814 27.8795C35.5769 29.7348 34.6717 31.44 33.2679 32.6759C31.864 33.9118 30.0578 34.5936 28.1875 34.5937C22.4108 34.5937 16.8706 32.2989 12.7858 28.2142C8.70105 24.1294 6.40625 18.5892 6.40625 12.8125C6.40635 10.9421 7.08818 9.13596 8.32409 7.73213C9.56 6.32831 11.2652 5.4231 13.1205 5.18601C13.3953 5.15275 13.6735 5.20971 13.9132 5.34831C14.1529 5.48692 14.341 5.69966 14.4492 5.95448L17.6669 13.4623C17.7501 13.6565 17.784 13.8682 17.7656 14.0787C17.7472 14.2892 17.677 14.4918 17.5613 14.6686L14.8969 18.7397C14.7756 18.9229 14.7039 19.1343 14.6888 19.3535C14.6737 19.5726 14.7157 19.7919 14.8107 19.9899V19.9899Z" stroke="white" stroke-width="1.5" stroke-linecap="round" stroke-linejoin="round"/>
</svg>
