<svg width="39" height="39" viewBox="0 0 39 39" fill="none" xmlns="http://www.w3.org/2000/svg">
<path d="M35.6614 4.49249C34.9475 3.90047 33.9663 3.74813 33.1065 4.09576L3.99137 15.85C2.71063 16.3772 2.09976 17.8428 2.62692 19.1234C2.89957 19.7858 3.44229 20.2998 4.11832 20.5362L10.3993 22.7198L13.8033 33.9742C13.8101 33.9971 13.8311 34.0111 13.84 34.0331C13.8752 34.1229 13.9266 34.2055 13.9916 34.2767C14.0158 34.3054 14.0422 34.3322 14.0704 34.357C14.1552 34.4274 14.2536 34.4795 14.3596 34.5099C14.3757 34.5146 14.3865 34.529 14.403 34.5328L14.4125 34.5324L14.4173 34.5344C14.4715 34.5465 14.5269 34.5523 14.5823 34.5518C14.6548 34.5492 14.7267 34.5367 14.7958 34.5146C14.8092 34.511 14.8226 34.5119 14.8357 34.5076C14.9537 34.466 15.0602 34.3977 15.147 34.3078C15.1571 34.2977 15.1725 34.2959 15.1822 34.2852L20.0794 28.8818L27.2237 34.4138C27.6578 34.7532 28.193 34.9375 28.744 34.9374C29.9357 34.9372 30.9644 34.1024 31.21 32.9363L36.512 6.90778C36.6957 6.0074 36.3687 5.07906 35.6614 4.49249ZM15.5806 24.8542L14.4314 30.4389L12.0347 22.5125L23.9214 16.3228L15.8012 24.4432C15.6889 24.5555 15.6122 24.6985 15.5806 24.8542ZM29.6184 32.6094C29.5562 32.9086 29.3427 33.1538 29.0551 33.2569C28.774 33.365 28.4566 33.3168 28.2204 33.1299L20.4794 27.1362C20.1443 26.8767 19.6659 26.9189 19.3813 27.233L15.9758 30.9903L17.1231 25.4207L28.8044 13.7379C29.1218 13.421 29.1223 12.9068 28.8054 12.5894C28.5548 12.3382 28.1701 12.2789 27.8554 12.4429L11.0149 21.2125L4.64994 19.0001C4.303 18.8859 4.06704 18.5639 4.06278 18.1987C4.04602 17.8309 4.26372 17.4928 4.6055 17.356L33.7159 5.60333C34.0199 5.4743 34.3709 5.52835 34.622 5.74298C34.8719 5.94472 34.9868 6.27013 34.9187 6.58405L29.6184 32.6094Z" fill="white"/>
</svg>
