<svg width="689" height="410" viewBox="0 0 689 410" fill="none" xmlns="http://www.w3.org/2000/svg">
<path opacity="0.05" d="M71.1406 321.993C71.1406 175.449 189.938 56.6519 336.482 56.6519C483.025 56.6519 601.823 175.449 601.823 321.993" fill="white"/>
<path d="M275.22 260.827H250.67V322.462H275.22V260.827Z" fill="#09B559"/>
<path d="M330.543 206.721H305.991V322.463H330.543V206.721Z" fill="white"/>
<path d="M385.865 218.688H361.314V322.462H385.865V218.688Z" fill="#09B559"/>
<path d="M441.188 160.098H416.637V322.463H441.188V160.098Z" fill="white"/>
<path d="M667.328 333H21.6723C9.70289 333 0 330.538 0 327.5C0 324.462 9.70289 322 21.6723 322H667.328C679.297 322 689 324.462 689 327.5C689 330.538 679.297 333 667.328 333Z" fill="#D3D3D3"/>
<path d="M304.38 58.9932C304.255 56.893 300.622 52.6158 301.176 52.0799C301.574 51.695 302.988 53.0171 303.752 53.7897C303.842 53.8801 303.974 53.9099 304.094 53.8665C304.213 53.8232 304.295 53.7147 304.305 53.5882C304.471 51.525 304.987 45.7504 305.564 45.6962C306.148 45.6411 306.44 49.2938 306.521 50.5201C306.524 50.5572 306.552 50.5879 306.589 50.5924C306.626 50.597 306.661 50.5753 306.673 50.54C307.122 49.2423 308.637 45.0536 309.286 45.5913C309.904 46.1028 308.946 50.1144 308.548 51.6579C308.538 51.6958 308.558 51.7356 308.595 51.7501C308.631 51.7645 308.673 51.7501 308.693 51.7157C309.474 50.3331 311.537 46.8276 312.093 47.2749C312.66 47.7313 311.063 51.5314 310.471 52.8797C310.456 52.9149 310.468 52.9565 310.501 52.9773C310.533 52.9981 310.576 52.9918 310.602 52.9628C311.495 51.9543 313.833 49.3842 313.819 50.1397C313.803 51.0732 309.697 58.8378 308.352 60.1373C307.007 61.4396 304.38 58.9932 304.38 58.9932Z" fill="#F9B9B2"/>
<path d="M267.515 84.9822C270.298 91.149 274.304 98.1536 279.146 102.961C288.569 112.288 300.663 109.851 304.884 88.0403C305.619 84.7535 306.131 81.4812 306.562 78.2152C307.44 71.6905 307.779 65.1856 308.079 58.7007C308.125 57.7192 307.366 56.886 306.384 56.8408C305.495 56.7993 304.729 57.4183 304.558 58.2642L304.551 58.3003C303.274 64.5964 301.989 70.8799 300.343 76.9925C299.496 80.038 298.619 83.0582 297.596 85.969C296.71 88.7262 293.148 97.2924 290.379 98.131C290.287 98.1157 290.197 98.235 290.144 98.1835C290.093 98.1365 290.067 98.132 290.035 98.16C289.984 98.0913 289.948 98.0615 289.903 98.0705C289.751 97.9476 289.572 97.9268 289.244 97.6602C288.641 97.2644 287.815 96.4836 287.03 95.5094C285.423 93.6044 283.926 91.0867 282.609 88.4732C280.325 84.0405 279.001 80.8531 279.001 80.8531C276.189 73.1418 264.524 76.8344 267.34 84.5556C267.392 84.6957 267.454 84.8475 267.515 84.9822Z" fill="#F9B9B2"/>
<path d="M286.209 93.2816C286.199 93.2662 286.187 93.2517 286.176 93.2364C284.754 91.1543 283.434 88.979 282.218 86.7478C281.012 84.5708 279.783 82.1516 278.923 80.0929L278.88 79.9899C278.811 79.8254 278.734 79.6628 278.65 79.5019C277.05 76.4637 273.292 75.2979 270.254 76.8965C267.215 78.4961 266.05 82.2546 267.648 85.2928C269.148 88.1422 270.601 90.4729 272.259 92.9255C273.381 94.544 274.576 96.1147 275.806 97.6609C276.722 96.6831 284.02 94.066 286.209 93.2816Z" fill="#09B559"/>
<path d="M280.12 136.455C274.711 142.661 243.493 145.251 243.493 145.251C241.189 142.577 244.558 130.423 245.37 118.086C246.248 104.746 246.755 90.0229 246.986 82.0675C247.082 78.7844 249.769 76.1799 253.053 76.1799H272.864C275.918 76.1799 278.46 78.5097 278.711 81.5533C279.231 87.8522 280.136 98.7996 281.027 109.533C281.932 120.423 284.795 131.091 280.12 136.455Z" fill="#F3CBC5"/>
<path d="M262.111 240.163L262.156 252.442L261.09 258.422C260.906 259.458 261.671 260.415 262.723 260.447C267.749 260.602 280.621 260.941 280.965 260.383C282.584 257.765 275.268 256.757 269.916 254.686C264.565 252.615 268.257 232.294 268.257 232.294L262.111 240.163Z" fill="#F9B9B2"/>
<path d="M269.916 254.686C269.888 254.675 269.863 254.656 269.835 254.643C268.56 255.12 267.125 255.4 265.507 255.4C264.12 255.4 262.863 255.199 261.728 254.844L261.09 258.422C260.906 259.457 261.671 260.415 262.723 260.447C267.749 260.601 280.621 260.94 280.965 260.383C282.583 257.766 275.267 256.757 269.916 254.686Z" fill="#525252"/>
<path d="M280.112 140.93C280.306 149.465 276.949 203.609 270.319 203.759C263.688 203.909 256.296 150.009 256.102 141.474C255.908 132.94 261.126 125.9 267.756 125.75C274.387 125.6 279.919 132.396 280.112 140.93Z" fill="white"/>
<path d="M261.162 192.511C260.504 197.209 260.397 227.307 261.455 242.598H267.49C270.732 227.766 274.196 199.02 274.839 194.427C274.847 194.368 274.851 194.311 274.858 194.253C278.465 178.295 280.255 147.223 280.112 140.93C279.919 132.396 274.387 125.6 267.757 125.75C261.127 125.901 255.909 132.941 256.103 141.474C256.224 146.833 261.474 190.286 261.162 192.511Z" fill="#525252"/>
<path d="M247.625 240.163L247.67 252.442L246.604 258.422C246.419 259.458 247.185 260.415 248.237 260.447C253.263 260.602 266.134 260.941 266.479 260.383C268.097 257.765 260.782 256.757 255.43 254.686C250.078 252.615 253.771 232.294 253.771 232.294L247.625 240.163Z" fill="#F9B9B2"/>
<path d="M255.43 254.686C255.401 254.675 255.377 254.656 255.349 254.643C254.074 255.12 252.639 255.4 251.021 255.4C249.634 255.4 248.377 255.199 247.242 254.844L246.604 258.422C246.419 259.457 247.185 260.415 248.237 260.447C253.263 260.601 266.134 260.94 266.479 260.383C268.097 257.766 260.782 256.757 255.43 254.686Z" fill="#525252"/>
<path d="M265.626 140.93C265.82 149.465 262.463 203.609 255.833 203.759C249.202 203.909 243.244 149.81 243.05 141.276C242.857 132.741 246.64 125.9 253.27 125.75C259.9 125.6 265.432 132.396 265.626 140.93Z" fill="white"/>
<path d="M246.675 192.511C246.017 197.209 245.91 227.307 246.968 242.598H253.004C256.245 227.766 259.709 199.02 260.352 194.427C260.361 194.368 260.364 194.311 260.371 194.253C263.978 178.295 267.202 147.024 267.06 140.732C266.866 132.197 259.901 125.6 253.27 125.75C246.64 125.901 242.856 132.742 243.05 141.276C243.172 146.634 246.987 190.286 246.675 192.511Z" fill="#525252"/>
<path d="M273.051 76.1809H269.832C268.712 78.7754 266.34 80.7808 262.661 80.7808C258.974 80.7808 256.604 78.7763 255.485 76.1809H252.547C249.544 76.1809 247.085 78.5559 246.999 81.558C246.775 89.3804 246.266 104.456 245.369 118.086C244.557 130.423 241.189 141.887 243.492 145.251C243.492 145.251 274.711 142.66 280.119 136.455C284.794 131.091 281.931 120.423 281.026 109.533C280.125 98.6958 279.211 87.639 278.694 81.3709C278.454 78.4339 275.999 76.1809 273.051 76.1809Z" fill="#09B559"/>
<path d="M261.808 68.9712C258.775 69.6453 255.77 67.7331 255.095 64.6994L253.494 57.5041L258.986 56.2832L261.808 68.9712Z" fill="#525252"/>
<path d="M266.714 76.1808H256.355L259.342 65.8533L266.403 66.7271L266.714 76.1808Z" fill="#F3CBC5"/>
<path d="M266.404 66.7271L259.343 65.8533L257.951 70.6664C259.532 72.4485 261.876 75.2147 264.445 75.2147C265.26 75.2147 266.003 74.9852 266.671 74.5614L266.404 66.7271Z" fill="#F9B9B2"/>
<path d="M267.472 72.2164C262.821 73.2502 258.212 70.3186 257.179 65.6681L255.093 56.2877L269.536 53.0759C269.536 53.0759 271.164 60.3986 271.211 65.5751C271.246 69.4583 269.842 71.6886 267.472 72.2164Z" fill="#F3CBC5"/>
<path d="M257.845 59.4408L255.131 60.0444L255.405 61.275L258.119 60.6714L257.845 59.4408Z" fill="white"/>
<path d="M259.233 63.3492C259.64 65.1793 259.094 66.8583 258.013 67.0987C256.932 67.3391 255.207 65.2045 254.8 63.3745C254.394 61.5445 255.459 60.7104 256.539 60.47C257.62 60.2296 258.826 61.5183 259.233 63.3492Z" fill="#F3CBC5"/>
<path d="M271.395 56.7106C271.473 55.4671 271.271 54.2227 270.803 53.0678C269.641 50.203 266.433 48.9704 263.514 49.9861C263.216 50.0901 262.9 50.1804 262.565 50.2545L257.691 51.3363C254.761 51.987 252.914 54.8887 253.565 57.8186L253.818 58.9545L256.708 60.6309L257.886 62.6823L258.077 62.6398C259.007 62.4329 259.607 61.54 259.461 60.611C259.222 59.0792 259.983 57.5836 261.496 57.2465L265.822 56.2841C268.456 55.6985 270.139 56.8082 270.578 58.7774L270.813 60.4737L271.395 56.7106Z" fill="#525252"/>
<path d="M256.809 53.29C256.478 55.9659 266.096 59.3566 268.632 59.6702C271.169 59.9837 273.492 58.0679 273.823 55.392C274.154 52.7161 272.365 50.2924 269.829 49.9797C267.293 49.6661 257.14 50.6141 256.809 53.29Z" fill="#525252"/>
<path d="M245.82 86.2788C249.01 90.6274 254.479 96.3461 261.027 101.284C281.053 115.889 302.485 117.365 319.963 100.834C320.677 100.158 320.709 99.03 320.033 98.3143C319.455 97.7034 318.546 97.5913 317.849 97.9944L317.768 98.0414C306.37 104.62 296.164 107.321 283.316 101.923C266.471 94.6643 254.52 77.2011 255.778 78.8666C253.712 76.1311 249.82 75.5889 247.084 77.6547C244.372 79.7025 243.818 83.5478 245.82 86.2788Z" fill="#F3CBC5"/>
<path d="M264.967 88.8943C260.797 85.1511 255.493 77.776 255.493 77.776C255.493 77.776 252.979 74.8046 247.805 76.9717C243.673 78.7023 244.51 83.5841 244.51 83.5841C244.61 84.2637 245.991 92.3166 255.491 99.4387C255.491 99.4378 265.668 89.5223 264.967 88.8943Z" fill="#09B559"/>
<g opacity="0.1">
<path d="M333.501 0.0302734C311.901 0.0555771 294.365 17.5684 294.365 39.1724C294.365 49.555 299.647 58.5198 304.998 66.5564C316.82 84.3151 310.103 93.9359 316.927 93.9359H333.478H350.116C356.946 93.9359 350.209 84.3142 362.036 66.5564C367.385 58.5216 372.654 49.8361 372.654 39.457C372.657 17.8486 355.102 0.0555771 333.501 0.0302734Z" fill="#09B559"/>
<path d="M314.421 53.8711C314.003 53.3451 313.233 53.2584 312.711 53.6741C312.185 54.0952 312.1 54.8607 312.518 55.3857C312.733 55.6541 312.978 55.9144 313.242 56.1692L326.223 95.7732C326.394 96.2856 326.868 96.6118 327.381 96.6118C327.505 96.6118 327.632 96.5919 327.76 96.5503C328.398 96.3398 328.745 95.6566 328.533 95.0141L316.545 58.424C319.455 59.8428 323.096 60.4925 326.065 59.5482C326.708 59.343 327.291 59.0719 327.818 58.7394C329.271 59.6901 331.046 60.2567 332.931 60.2567C335.16 60.2567 337.266 59.5428 338.862 58.2685C339.754 58.7448 340.787 59.1388 341.939 59.428C345.343 60.291 348.353 60.0823 350.86 58.8578L339.004 95.0159C338.798 95.6557 339.145 96.3425 339.778 96.5503C339.906 96.5937 340.036 96.6109 340.163 96.6109C340.675 96.6109 341.152 96.2865 341.321 95.775L354.32 56.1069C354.427 55.9776 354.553 55.8701 354.658 55.7345C355.071 55.2059 354.98 54.4395 354.451 54.0265C353.921 53.6108 353.157 53.7039 352.746 54.2335C350.394 57.2374 346.956 58.1926 342.536 57.0729C342.038 56.9473 341.313 56.7268 340.565 56.3888C341.3 55.2375 341.663 53.928 341.603 52.6014C341.496 49.9572 340.598 48.0178 339.139 47.2759C338.287 46.8439 337.342 46.8981 336.553 47.4223C335.273 48.2763 334.647 50.2192 334.842 52.7487C334.96 54.285 335.63 55.6496 336.778 56.7693C334.786 58.0128 331.794 58.1465 329.654 56.9988C330.466 55.852 330.94 54.4061 331.033 52.7198C331.165 50.3575 330.435 48.4444 329.084 47.6066C328.221 47.0698 327.187 47.0436 326.313 47.5443C324.932 48.3233 324.17 50.1921 324.209 52.671C324.235 54.2733 324.857 55.7779 325.883 57.0187C325.705 57.0991 325.519 57.1687 325.323 57.2302C321.69 58.386 316.386 56.3391 314.421 53.8711ZM337.908 49.443C337.931 49.4276 337.943 49.4176 337.962 49.4176C337.981 49.4176 338.004 49.4258 338.038 49.443C338.394 49.6237 339.086 50.5373 339.173 52.7008C339.211 53.5205 338.981 54.3311 338.524 55.064C337.849 54.4197 337.351 53.5955 337.271 52.558C337.127 50.681 337.571 49.6662 337.908 49.443ZM327.514 49.6598C327.558 49.6327 327.599 49.6183 327.646 49.6183C327.69 49.6183 327.741 49.6354 327.808 49.6743C328.15 49.8885 328.708 50.7434 328.605 52.5851C328.543 53.7428 328.258 54.7034 327.76 55.4607C327.077 54.6356 326.663 53.6569 326.646 52.6339C326.615 50.691 327.178 49.8496 327.514 49.6598Z" fill="#525252"/>
<path d="M347.284 93.936H319.706C318.106 93.936 316.809 96.8839 316.809 98.4871C316.809 100.089 318.107 103.038 319.706 103.038H328.948L318.826 104.925C317.307 105.417 316.472 106.354 316.964 107.877C317.359 109.103 318.498 109.536 319.723 109.536C320.017 109.536 320.319 109.311 320.617 109.219L348.184 100.19C349.537 99.7496 350.373 98.0895 350.151 96.6815C349.923 95.2717 348.71 93.936 347.284 93.936ZM347.25 114.416H338.034L348.145 109.845C349.665 109.354 350.5 107.074 350.006 105.55C349.511 104.03 347.879 102.869 346.355 103.363L318.81 112.141C317.451 112.585 316.619 114.532 316.841 115.94C317.061 117.35 318.279 118.967 319.706 118.967H322.21L326.592 125.794H340.259L344.71 118.967H347.25C348.852 118.967 350.146 118.292 350.146 116.691C350.146 115.09 348.852 114.416 347.25 114.416Z" fill="#525252"/>
</g>
<path d="M252.814 229.801L238.879 213.152L306.77 156.084L365.806 165.923L432.785 114.188L435.487 116.614L371.622 187.712L313.7 175.128L252.814 229.801Z" fill="#09B559"/>
<path d="M436.444 148.533L397.601 111.285L447.746 97.8679L436.444 148.533Z" fill="#09B559"/>
<path d="M316.58 98.7925C317.949 97.1957 318.31 91.5945 319.08 91.5945C319.634 91.5945 319.732 93.5284 319.744 94.6147C319.745 94.7412 319.821 94.856 319.936 94.9075C320.052 94.959 320.188 94.9382 320.283 94.8542C321.836 93.486 326.22 89.6922 326.672 90.0537C327.13 90.4197 324.801 93.2492 324.008 94.1882C323.983 94.2162 323.983 94.2577 324.006 94.2875C324.029 94.3165 324.069 94.3255 324.103 94.3093C325.328 93.6884 329.328 91.7292 329.421 92.5678C329.509 93.3649 326.032 95.5835 324.674 96.4167C324.64 96.4375 324.627 96.479 324.643 96.5152C324.659 96.5513 324.699 96.5694 324.737 96.5586C326.26 96.1076 330.179 95.0196 330.268 95.729C330.358 96.451 326.569 98.0732 325.207 98.6317C325.171 98.6461 325.152 98.685 325.16 98.722C325.169 98.76 325.204 98.7853 325.242 98.7817C326.585 98.6768 330.052 98.4536 329.518 98.9877C328.857 99.6483 320.508 102.378 318.639 102.378C316.77 102.378 316.58 98.7925 316.58 98.7925Z" fill="#F3CBC5"/>
<path d="M456.208 259.633C464.472 267.896 477.857 267.884 486.122 259.633C494.385 251.369 494.385 237.984 486.122 229.719C477.858 221.456 464.473 221.443 456.208 229.719C447.945 237.971 447.945 251.368 456.208 259.633ZM459.548 233.059C465.969 226.639 476.361 226.639 482.781 233.059C489.202 239.467 489.202 249.872 482.781 256.292C476.373 262.713 465.968 262.713 459.548 256.292C453.128 249.872 453.128 239.467 459.548 233.059Z" fill="#525252"/>
<path opacity="0.25" d="M458.113 250.045C457.928 246.198 459.313 242.276 462.257 239.345C467.8 233.79 476.768 233.79 482.311 239.345C483.77 240.804 484.846 242.5 485.54 244.318C485.366 240.928 483.993 237.575 481.395 234.99C475.853 229.447 466.884 229.447 461.342 234.99C457.272 239.06 456.184 244.986 458.113 250.045Z" fill="white"/>
<path d="M507.469 280.844C508.538 279.774 508.538 278.04 507.469 276.97L487.323 256.825L483.45 260.698L503.596 280.844C504.666 281.913 506.399 281.913 507.469 280.844Z" fill="#525252"/>
<path d="M510.849 284.222C512.335 282.736 512.335 280.326 510.849 278.84L492.213 260.205C491.797 259.788 491.121 259.788 490.703 260.205L486.83 264.078C486.413 264.495 486.413 265.171 486.83 265.588L505.465 284.223C506.952 285.709 509.362 285.709 510.849 284.222Z" fill="#09B559"/>
<path d="M204.345 286.578C215.713 285.858 224.346 276.059 223.626 264.69C222.906 253.321 213.106 244.689 201.737 245.409C190.369 246.129 181.736 255.929 182.456 267.297C183.176 278.666 192.976 287.299 204.345 286.578Z" fill="#09B559"/>
<path d="M211.838 256.387L208.293 255.064C207.701 254.844 207.042 255.145 206.821 255.737L202.003 268.653C201.787 269.233 201.15 269.535 200.564 269.338L195.031 267.463C194.433 267.261 193.783 267.581 193.58 268.18L192.365 271.764C192.163 272.362 192.484 273.012 193.082 273.215L204.194 276.98C204.78 277.179 205.417 276.875 205.634 276.296L212.51 257.86C212.731 257.267 212.43 256.608 211.838 256.387Z" fill="white"/>
<path d="M91.0225 390.118C125.461 390.118 153.378 389.309 153.378 388.311C153.378 387.313 125.461 386.504 91.0225 386.504C56.5845 386.504 28.667 387.313 28.667 388.311C28.667 389.309 56.5845 390.118 91.0225 390.118Z" fill="#D3D3D3"/>
<path d="M183.2 410C217.638 410 245.556 409.191 245.556 408.193C245.556 407.194 217.638 406.385 183.2 406.385C148.762 406.385 120.845 407.194 120.845 408.193C120.845 409.191 148.762 410 183.2 410Z" fill="#D3D3D3"/>
<path d="M297.066 390.118C331.505 390.118 359.422 389.309 359.422 388.311C359.422 387.313 331.505 386.504 297.066 386.504C262.628 386.504 234.711 387.313 234.711 388.311C234.711 389.309 262.628 390.118 297.066 390.118Z" fill="#D3D3D3"/>
<path d="M389.244 410C423.682 410 451.6 409.191 451.6 408.193C451.6 407.194 423.682 406.385 389.244 406.385C354.806 406.385 326.889 407.194 326.889 408.193C326.889 409.191 354.806 410 389.244 410Z" fill="#D3D3D3"/>
<path d="M497.689 390.118C532.127 390.118 560.044 389.309 560.044 388.311C560.044 387.313 532.127 386.504 497.689 386.504C463.251 386.504 435.333 387.313 435.333 388.311C435.333 389.309 463.251 390.118 497.689 390.118Z" fill="#D3D3D3"/>
<path d="M589.866 410C624.304 410 652.222 409.191 652.222 408.193C652.222 407.194 624.304 406.385 589.866 406.385C555.428 406.385 527.511 407.194 527.511 408.193C527.511 409.191 555.428 410 589.866 410Z" fill="#D3D3D3"/>
<path opacity="0.4" d="M554.982 121.586C559.56 132.031 554.803 144.208 544.359 148.785C533.914 153.363 521.737 148.606 517.16 138.162C512.582 127.717 517.339 115.54 527.784 110.963C538.228 106.384 550.405 111.141 554.982 121.586Z" fill="white"/>
<path d="M523.321 122.598L539.363 115.567C540.887 114.899 542.68 115.6 543.348 117.123L550.379 133.166C551.047 134.689 550.346 136.481 548.823 137.149L532.78 144.18C531.256 144.848 529.463 144.148 528.796 142.625L521.765 126.582C521.097 125.059 521.797 123.266 523.321 122.598ZM537.324 119.318C536.789 119.553 536.544 120.182 536.778 120.717L537.796 123.042C538.031 123.577 538.659 123.823 539.194 123.589L541.634 122.52C542.168 122.286 542.413 121.657 542.179 121.122L541.161 118.797C540.927 118.262 540.297 118.016 539.763 118.25L537.324 119.318ZM543.693 124.549L541.794 125.381C542.232 125.891 542.602 126.467 542.884 127.113C544.457 130.701 542.728 134.929 539.023 136.553C535.318 138.176 531.038 136.583 529.464 132.994C529.181 132.349 529.009 131.685 528.93 131.019L526.948 131.887L530.945 141.005C531.152 141.477 531.706 141.691 532.178 141.484L547.208 134.897C547.68 134.69 547.896 134.138 547.689 133.666L543.693 124.549ZM534.231 125.618C531.837 126.667 530.72 129.397 531.738 131.718C532.754 134.036 535.519 135.067 537.913 134.018C540.307 132.969 541.423 130.237 540.407 127.919C539.389 125.598 536.624 124.569 534.231 125.618Z" fill="white"/>
<path opacity="0.4" d="M125.181 186.199C136.945 186.199 146.481 176.663 146.481 164.899C146.481 153.135 136.945 143.599 125.181 143.599C113.417 143.599 103.881 153.135 103.881 164.899C103.881 176.663 113.417 186.199 125.181 186.199Z" fill="white"/>
<path d="M119.037 154.249L134.81 164.899L119.037 175.55V154.249Z" fill="white"/>
<path opacity="0.4" d="M86.8468 246.309V230.248C85.2129 230.283 83.8031 230.527 82.2099 231.045C78.0511 232.396 74.6667 235.286 72.6822 239.183C70.7609 242.953 70.3723 247.23 71.5733 251.272L86.8468 246.309Z" fill="white"/>
<path d="M94.534 249.419L87.2682 247.059L71.832 252.074C73.5726 257.052 77.1539 260.543 82.2084 262.186C83.8549 262.721 85.5575 262.992 87.2709 262.992C94.2421 262.992 100.391 258.622 102.703 252.074L94.534 249.419Z" fill="white"/>
<path opacity="0.1" d="M97.2304 233.622L87.9512 246.393L102.964 251.271C104.939 244.658 102.715 237.812 97.2304 233.622Z" fill="white"/>
<path opacity="0.62" d="M87.6904 245.316L96.5476 233.125C93.8311 231.24 90.9962 230.319 87.6904 230.247V245.316Z" fill="white"/>
<path opacity="0.62" d="M171.114 100.739C184.641 100.739 195.607 89.7732 195.607 76.246C195.607 62.7189 184.641 51.7529 171.114 51.7529C157.587 51.7529 146.621 62.7189 146.621 76.246C146.621 89.7732 157.587 100.739 171.114 100.739Z" fill="white"/>
<path d="M177.416 73.4735L174.721 68.4317L170.148 71.6914L168.046 68.7426C167.093 67.406 166.817 66.2285 168.734 64.863L171.176 63.1206L168.233 58.9907C167.771 59.2356 166.231 60.1429 164.541 61.3476C161.015 63.8608 160.137 67.7322 162.954 71.6832L165.382 75.0884L161.395 77.9305L164.686 82.5485L168.673 79.7063L177.117 91.5529L181.884 88.155L173.44 76.3084L177.416 73.4735Z" fill="white"/>
<path opacity="0.62" d="M484.565 50.2599C484.565 63.022 474.218 73.3685 461.456 73.3685C448.693 73.3685 438.347 63.0229 438.347 50.2599C438.347 37.4969 448.693 27.1504 461.456 27.1504C474.219 27.1504 484.565 37.4969 484.565 50.2599Z" fill="white"/>
<path d="M467.567 61.8805C467.262 62.3044 466.86 62.6116 466.42 62.8195L465.227 51.5928L475.069 50.6511C475.037 51.1933 474.864 51.7347 474.523 52.2082L467.567 61.8805ZM461.296 50.6628L475.309 49.3227C475.093 48.8753 474.783 48.4723 474.354 48.1641L459.511 37.4905C459.082 37.1814 458.598 37.0142 458.107 36.9546L461.296 50.6628Z" fill="white"/>
<path d="M464.022 51.9334L460.778 52.2452C460.588 52.2624 460.407 52.2091 460.261 52.1042C460.116 52.0003 460.007 51.8458 459.964 51.6596L459.226 48.4849L447.808 51.0171C448.015 51.5268 448.358 51.9895 448.838 52.3347L463.681 63.0083C464.162 63.3535 464.71 63.5316 465.258 63.5659L464.022 51.9334ZM456.588 37.1479C456.073 37.3576 455.606 37.7019 455.258 38.1863L448.143 48.0809C447.83 48.5147 447.662 49.0037 447.604 49.498L458.879 46.9992L456.588 37.1479Z" fill="white"/>
<path d="M563.809 255.212C563.809 255.212 568.408 260.111 572.543 264.17C576.678 268.231 582.223 271.748 582.223 271.748C582.223 271.748 584.204 271.026 587.537 269.129C590.871 267.232 591.154 266.431 591.154 266.431C591.154 266.431 589.777 262.333 587.127 262.42C586.586 260.807 585.599 258.802 583.519 258.913C583.183 257.097 581.471 253.52 578.762 253.179C578.712 251.12 577.5 249.481 577.5 249.481L563.809 255.212Z" fill="white"/>
<path d="M581.847 248.406L584.691 253.56C584.691 253.56 584.137 254.29 583.218 254.591C582.299 254.891 580.029 252.656 579.363 251.511C578.697 250.366 578.048 248.843 578.048 248.843L581.847 248.406ZM549.011 244.84C549.011 244.84 548.969 245.648 549.352 247.173C547.935 248.627 547.511 250.87 548.46 252.796C549.409 254.722 551.446 255.753 553.463 255.516C554.439 256.747 555.105 257.206 555.105 257.206L559.626 256.219L556.087 249.038L552.548 241.857L549.011 244.84Z" fill="white"/>
<path d="M577.905 220.2C573.615 228.813 563.909 234.379 559.403 236.834C554.897 239.29 553.514 239.501 552.627 240.878C551.74 242.255 555.342 249.406 555.342 249.406C555.342 249.406 558.818 256.618 560.45 256.754C562.083 256.888 563.094 255.921 567.786 253.844C572.478 251.766 582.805 247.46 592.248 249.305C601.692 251.151 606.553 252.435 606.553 252.435L595.345 229.692L584.138 206.95C584.138 206.95 582.195 211.587 577.905 220.2Z" fill="#4E4E4E"/>
<path d="M610.349 246.356C611.101 249.034 610.522 251.065 608.392 252.115C606.262 253.164 604.273 252.462 602.633 250.157C602.633 250.157 600.451 248.289 592.079 231.301C583.707 214.313 583.555 211.444 583.555 211.444C583.204 208.66 583.381 206.734 585.511 205.685C587.642 204.635 589.31 205.327 591.271 207.642C591.271 207.642 594.122 210.868 601.824 226.498C609.528 242.129 610.349 246.356 610.349 246.356Z" fill="white"/>
<path d="M601.08 226.865C606.744 238.36 609.272 248.695 609.272 248.695C609.272 248.695 602.615 240.395 596.952 228.901C591.287 217.406 588.76 207.072 588.76 207.072C588.76 207.072 595.416 215.371 601.08 226.865Z" fill="white"/>
<path d="M605.402 205.021C605.141 205.021 604.879 204.939 604.656 204.769C604.117 204.356 604.015 203.585 604.427 203.046L619.252 183.653C619.664 183.113 620.435 183.011 620.975 183.423C621.515 183.836 621.617 184.606 621.205 185.146L606.38 204.539C606.137 204.856 605.771 205.021 605.402 205.021Z" fill="white"/>
<path d="M610.995 211.818C610.616 211.818 610.242 211.643 610.001 211.314C609.601 210.765 609.721 209.996 610.27 209.596L626.271 197.914C626.818 197.512 627.588 197.633 627.989 198.182C628.389 198.731 628.269 199.5 627.72 199.9L611.719 211.582C611.5 211.741 611.246 211.818 610.995 211.818Z" fill="white"/>
<path d="M615.077 221.439C614.56 221.439 614.08 221.111 613.91 220.593C613.697 219.948 614.048 219.253 614.693 219.041L642.128 210.017C642.774 209.804 643.468 210.156 643.68 210.8C643.892 211.446 643.541 212.141 642.896 212.352L615.461 221.376C615.334 221.419 615.205 221.439 615.077 221.439Z" fill="white"/>
<path d="M619.658 233.467C619.038 233.467 618.505 232.999 618.437 232.368C618.364 231.693 618.853 231.088 619.528 231.015L640.416 228.787C641.079 228.721 641.696 229.203 641.769 229.878C641.841 230.554 641.352 231.159 640.677 231.231L619.79 233.46C619.745 233.465 619.701 233.467 619.658 233.467Z" fill="white"/>
</svg>
